<svg xmlns="http://www.w3.org/2000/svg" xmlns:xlink="http://www.w3.org/1999/xlink" width="500" zoomAndPan="magnify" viewBox="0 0 375 374.999991" height="500" preserveAspectRatio="xMidYMid meet" version="1.0"><defs><clipPath id="id1"><path d="M 50.957031 55.230469 L 133.457031 55.230469 L 133.457031 137.730469 L 50.957031 137.730469 Z M 50.957031 55.230469 " clip-rule="nonzero"/></clipPath><clipPath id="id2"><path d="M 264.285156 239.765625 L 346.785156 239.765625 L 346.785156 322.265625 L 264.285156 322.265625 Z M 264.285156 239.765625 " clip-rule="nonzero"/></clipPath><clipPath id="id3"><path d="M 101 269 L 185 269 L 185 352 L 101 352 Z M 101 269 " clip-rule="nonzero"/></clipPath><clipPath id="id4"><path d="M 90.914062 284.800781 L 169.042969 258.296875 L 195.546875 336.425781 L 117.417969 362.929688 Z M 90.914062 284.800781 " clip-rule="nonzero"/></clipPath><clipPath id="id5"><path d="M 150.8125 28.546875 L 327.0625 28.546875 L 327.0625 261.046875 L 150.8125 261.046875 Z M 150.8125 28.546875 " clip-rule="nonzero"/></clipPath></defs><rect x="-37.5" width="450" fill="#ffffff" y="-37.499999" height="449.999989" fill-opacity="1"/><rect x="-37.5" width="450" fill="#004aad" y="-37.499999" height="449.999989" fill-opacity="1"/><rect x="-37.5" width="450" fill="#ffffff" y="-37.499999" height="449.999989" fill-opacity="1"/><rect x="-37.5" width="450" fill="#004aad" y="-37.499999" height="449.999989" fill-opacity="1"/><g clip-path="url(#id1)"><path fill="#fffefe" d="M 92.207031 55.230469 C 69.425781 55.230469 50.957031 73.699219 50.957031 96.480469 C 50.957031 119.261719 69.425781 137.730469 92.207031 137.730469 C 114.988281 137.730469 133.457031 119.261719 133.457031 96.480469 C 133.457031 73.699219 114.988281 55.230469 92.207031 55.230469 " fill-opacity="1" fill-rule="nonzero"/></g><path stroke-linecap="butt" transform="matrix(13.862602, 12.652144, -12.639817, 13.849097, 81.66651, 77.096597)" fill="none" stroke-linejoin="miter" d="M 0.0000954583 -0.0000106894 L 17.303263 -0.0000316941 " stroke="#fffefe" stroke-width="1" stroke-opacity="1" stroke-miterlimit="4"/><g clip-path="url(#id2)"><path fill="#fffefe" d="M 305.535156 239.765625 C 282.753906 239.765625 264.285156 258.230469 264.285156 281.015625 C 264.285156 303.796875 282.753906 322.265625 305.535156 322.265625 C 328.316406 322.265625 346.785156 303.796875 346.785156 281.015625 C 346.785156 258.230469 328.316406 239.765625 305.535156 239.765625 " fill-opacity="1" fill-rule="nonzero"/></g><g clip-path="url(#id3)"><g clip-path="url(#id4)"><path fill="#fffefe" d="M 129.980469 271.550781 C 108.40625 278.867188 96.847656 302.289062 104.167969 323.863281 C 111.484375 345.4375 134.90625 356.996094 156.480469 349.675781 C 178.054688 342.359375 189.613281 318.9375 182.292969 297.363281 C 174.976562 275.789062 151.554688 264.230469 129.980469 271.550781 " fill-opacity="1" fill-rule="nonzero"/></g></g><path stroke-linecap="butt" transform="matrix(4.799269, 18.112365, -18.124527, 4.802492, 82.148078, 82.953686)" fill="none" stroke-linejoin="miter" d="M -0.0000240076 -0.0000262194 L 13.969814 0.0000861198 " stroke="#fffefe" stroke-width="1" stroke-opacity="1" stroke-miterlimit="4"/><g clip-path="url(#id5)"><path fill="#ffd300" d="M 327.058594 28.546875 L 198.164062 133.269531 L 229.730469 133.929688 L 181.726562 183.984375 L 210.003906 185.300781 L 150.816406 261.046875 L 280.367188 156.320312 L 248.144531 154.347656 L 299.441406 104.289062 L 270.503906 102.3125 Z M 327.058594 28.546875 " fill-opacity="1" fill-rule="nonzero"/></g></svg>